<?xml version="1.0" encoding="iso-8859-1"?>
<!-- Generator: Adobe Illustrator 19.0.0, SVG Export Plug-In . SVG Version: 6.00 Build 0)  -->
<svg version="1.1" id="Layer_1" xmlns="http://www.w3.org/2000/svg" xmlns:xlink="http://www.w3.org/1999/xlink" x="0px" y="0px"
	 viewBox="0 0 512 512" style="enable-background:new 0 0 512 512;" xml:space="preserve">
<g>
	<g>
		<path d="M416.918,214.422c63.061-65.555,63.807-121.383,63.807-123.78c0-41.936-12.097-69.782-35.958-82.762
			c-44.14-24.011-113.241,13.435-132.586,24.952C292.834,21.315,223.728-16.129,179.596,7.88
			c-23.86,12.98-35.958,40.826-35.958,82.762c0,2.397,0.747,58.225,63.807,123.78c-8.591,20.084-35.57,85.801-35.716,119.397
			c-0.217,3.918-2.124,42.262,3.604,82.358c8.426,58.979,28.82,91.187,60.616,95.729c0.441,0.062,0.883,0.094,1.324,0.094
			c2.239,0,4.421-0.805,6.135-2.291c2.051-1.779,3.229-4.359,3.229-7.073c0-0.46,0.105-46.415,9.182-91.8
			c7.856-39.281,24.012-86.107,56.363-86.107c53.72,0,65.528,128.424,65.545,177.909c0.001,2.714,1.18,5.294,3.23,7.071
			c1.714,1.486,3.895,2.291,6.133,2.291c0.44,0,0.883-0.032,1.324-0.094c31.796-4.542,52.19-36.75,60.616-95.729
			c5.728-40.097,3.821-78.44,3.604-82.358C452.488,300.223,425.508,234.506,416.918,214.422z M396.167,489.869
			c-0.634-17.314-2.679-49.803-9.26-82.704c-13.426-67.127-38.568-101.163-74.727-101.163c-36.159,0-61.301,34.036-74.726,101.163
			c-6.58,32.9-8.625,65.389-9.26,82.704c-36.897-20.355-40.006-116.692-37.756-155.227c0.01-0.183,0.016-0.366,0.016-0.549
			c0-35.036,36.282-117.098,36.647-117.922c1.573-3.541,0.804-7.684-1.935-10.424c-32.226-32.226-47.586-61.839-54.796-81.007
			c-7.788-20.706-8.006-34.01-8.007-34.097c0-34.541,8.804-56.848,26.165-66.304c33.918-18.472,97.091,13.48,118.569,27.35
			c0.166,0.107,0.346,0.169,0.517,0.264c0.343,0.192,0.682,0.387,1.044,0.535c0.259,0.105,0.525,0.169,0.789,0.249
			c0.314,0.096,0.624,0.202,0.946,0.265c0.278,0.054,0.555,0.069,0.835,0.097c0.325,0.033,0.646,0.074,0.973,0.074
			c0.262-0.001,0.519-0.038,0.778-0.06c0.344-0.029,0.685-0.052,1.026-0.12c0.26-0.052,0.506-0.14,0.761-0.213
			c0.323-0.094,0.648-0.176,0.965-0.306c0.304-0.125,0.586-0.294,0.877-0.45c0.218-0.118,0.447-0.2,0.658-0.337
			c21.449-13.88,84.555-45.852,118.55-27.356c17.372,9.451,26.18,31.761,26.18,66.312c0,0.523-0.718,53.021-62.803,115.105
			c-2.739,2.74-3.508,6.883-1.935,10.424c0.366,0.824,36.647,82.886,36.647,117.922c0,0.183,0.006,0.366,0.016,0.549
			C436.174,373.177,433.065,469.514,396.167,489.869z"/>
	</g>
</g>
<g>
	<g>
		<path d="M435.187,82.145l-21.805-11.926l-11.927-21.807c-1.643-3.003-4.793-4.87-8.215-4.87c-3.423,0-6.572,1.868-8.215,4.87
			l-11.926,21.807l-21.807,11.926c-3.003,1.643-4.87,4.792-4.87,8.215c0,3.422,1.868,6.572,4.87,8.215l21.807,11.927l11.926,21.805
			c1.643,3.003,4.792,4.87,8.215,4.87c3.422,0,6.572-1.868,8.215-4.87l11.927-21.805l21.805-11.927
			c3.003-1.643,4.87-4.793,4.87-8.215C440.058,86.936,438.19,83.787,435.187,82.145z M401.99,95.388
			c-1.571,0.86-2.862,2.151-3.722,3.722l-5.028,9.191l-5.027-9.191c-0.858-1.57-2.151-2.862-3.722-3.722l-9.192-5.028l9.192-5.027
			c1.57-0.858,2.863-2.151,3.722-3.722l5.027-9.192l5.028,9.192c0.86,1.57,2.151,2.863,3.722,3.722l9.191,5.027L401.99,95.388z"/>
	</g>
</g>
<g>
	<g>
		<path d="M322.825,213.234l-21.805-11.926l-11.927-21.806c-1.643-3.003-4.793-4.87-8.215-4.87c-3.423,0-6.572,1.868-8.215,4.87
			l-11.926,21.806l-21.806,11.926c-3.003,1.643-4.87,4.792-4.87,8.215c0,3.422,1.868,6.572,4.87,8.215l21.806,11.927l11.926,21.805
			c1.643,3.003,4.792,4.87,8.215,4.87c3.422,0,6.572-1.868,8.215-4.87l11.927-21.805l21.805-11.927
			c3.003-1.643,4.87-4.793,4.87-8.215C327.695,218.026,325.828,214.877,322.825,213.234z M289.627,226.477
			c-1.57,0.86-2.862,2.151-3.722,3.722l-5.028,9.191l-5.027-9.191c-0.858-1.57-2.151-2.862-3.722-3.722l-9.192-5.028l9.192-5.027
			c1.57-0.858,2.863-2.151,3.722-3.721l5.027-9.192l5.028,9.192c0.86,1.57,2.151,2.863,3.722,3.721l9.191,5.027L289.627,226.477z"/>
	</g>
</g>
<g>
	<g>
		<path d="M120.04,57.267L98.235,45.341L86.308,23.535c-1.642-3.003-4.793-4.87-8.215-4.87c-3.423,0-6.572,1.868-8.215,4.87
			L57.952,45.341L36.146,57.267c-3.003,1.642-4.87,4.791-4.87,8.215c0,3.423,1.868,6.573,4.87,8.215l21.806,11.926l11.926,21.807
			c1.642,3.003,4.791,4.87,8.215,4.87c3.422,0,6.573-1.868,8.215-4.87l11.927-21.807l21.805-11.926
			c3.003-1.642,4.87-4.793,4.87-8.215C124.91,62.06,123.043,58.91,120.04,57.267z M86.843,70.509
			c-1.57,0.858-2.862,2.151-3.722,3.721l-5.028,9.192l-5.027-9.192c-0.858-1.57-2.151-2.863-3.722-3.722l-9.191-5.027l9.191-5.027
			c1.57-0.858,2.863-2.151,3.722-3.722l5.027-9.192l5.028,9.192c0.86,1.57,2.151,2.863,3.722,3.722l9.191,5.027L86.843,70.509z"/>
	</g>
</g>
<g>
</g>
<g>
</g>
<g>
</g>
<g>
</g>
<g>
</g>
<g>
</g>
<g>
</g>
<g>
</g>
<g>
</g>
<g>
</g>
<g>
</g>
<g>
</g>
<g>
</g>
<g>
</g>
<g>
</g>
</svg>
