<?xml version="1.0" encoding="iso-8859-1"?>
<!-- Generator: Adobe Illustrator 17.1.0, SVG Export Plug-In . SVG Version: 6.00 Build 0)  -->
<!DOCTYPE svg PUBLIC "-//W3C//DTD SVG 1.1//EN" "http://www.w3.org/Graphics/SVG/1.1/DTD/svg11.dtd">
<svg version="1.1" id="Capa_1" xmlns="http://www.w3.org/2000/svg" xmlns:xlink="http://www.w3.org/1999/xlink" x="0px" y="0px"
	 viewBox="0 0 473.138 473.138" style="enable-background:new 0 0 473.138 473.138;" xml:space="preserve">
<path d="M419.608,103.591c-6.607-6.608-17.359-6.608-23.967,0c-3.528,3.528-5.153,8.236-4.914,12.865l-46.481,0l17.098-40.934
	c1.35,0.336,2.73,0.523,4.114,0.523c4.34,0,8.68-1.652,11.983-4.956c6.608-6.608,6.608-17.359,0-23.968
	c-6.608-6.607-17.358-6.606-23.967,0c-4.357,4.358-5.822,10.514-4.432,16.099L308.107,80.32l-0.004-46.482
	c0.296,0.015,0.591,0.042,0.887,0.042c4.34,0,8.68-1.652,11.983-4.956c6.608-6.608,6.608-17.359,0-23.967
	c-6.607-6.608-17.359-6.608-23.967,0c-5.241,5.24-6.309,13.08-3.237,19.399l-39.841,59.698
	c-12.983,2.747-24.406,10.822-31.659,22.503c-5.911,9.521-16.121,15.206-27.312,15.206c-11.19,0-21.4-5.684-27.312-15.206
	C158.538,91.89,143.1,83.09,126.348,83.016l-0.979-0.004c-0.116,0-0.229-0.001-0.345-0.001c-41.101,0-75.352,33.307-76.424,74.405
	c-0.221,8.464,0.933,16.814,3.443,24.863l26.977,84.319c0.033,33.074,7.055,83.333,22.546,116.771l34.684,74.864
	c3.054,8.848,11.157,14.817,20.293,14.901c5.81,0.076,11.254-2.162,15.37-6.24c4.116-4.078,6.383-9.515,6.383-15.309
	c0-0.603-0.084-1.203-0.249-1.783c-6.854-24.03-20.603-91.744-2.17-116.169c4.526-5.997,10.767-8.913,19.081-8.913
	c8.104,0,14.211,2.855,18.669,8.728c18.378,24.213,4.976,91.922-1.739,115.968c-0.159,0.569-0.24,1.159-0.24,1.75
	c0,11.176,8.866,20.999,19.764,21.896c0.606,0.05,1.209,0.075,1.808,0.075c9.158,0,17.314-5.747,20.34-14.495l34.848-75.328
	c15.463-33.427,22.466-83.683,22.488-116.721l26.99-84.36c1.184-3.797,2.059-7.703,2.636-11.649l59.683-39.792
	c2.336,1.136,4.875,1.721,7.42,1.721c4.34,0,8.68-1.652,11.983-4.956C426.216,120.95,426.216,110.199,419.608,103.591z
	 M362.667,56.316c0.77-0.77,1.78-1.154,2.792-1.154c1.011,0,2.021,0.385,2.79,1.154c1.54,1.539,1.54,4.043,0,5.583
	c-1.539,1.54-4.046,1.538-5.581,0C361.128,60.359,361.128,57.854,362.667,56.316z M306.199,14.149c0.77-0.77,1.78-1.154,2.791-1.154
	s2.021,0.385,2.791,1.154c1.54,1.539,1.54,4.043,0,5.583c-1.539,1.539-4.043,1.539-5.582,0
	C304.659,18.192,304.659,15.688,306.199,14.149z M298.203,263.606c-0.208,0.648-0.311,1.395-0.309,2.075
	c0.109,31.628-6.505,80.224-21.286,112.177l-34.996,75.65c-0.108,0.234-0.203,0.475-0.282,0.721c-1.23,3.79-4.867,6.212-8.853,5.879
	c-3.864-0.318-7.402-4.124-7.794-8.196c2.876-10.649,24.162-93.549-0.698-126.314c-6.985-9.206-16.751-13.874-29.028-13.874
	c-12.495,0-22.406,4.738-29.458,14.082c-24.901,32.996-3.177,115.887-0.238,126.553c-0.178,2.007-1.049,3.868-2.499,5.304
	c-1.633,1.618-3.804,2.493-6.1,2.476c-3.621-0.034-6.985-2.631-8.183-6.318c-0.08-0.247-0.175-0.489-0.284-0.725l-34.834-75.189
	c-13.45-29.033-20.155-71.786-21.196-103.11c16.941,5.501,55.931,16.207,102.792,16.207c23.556,0,48.084-2.781,72.905-8.266
	c3.506-0.774,5.719-4.244,4.944-7.749c-0.774-3.505-4.246-5.723-7.749-4.944c-2.699,0.596-5.393,1.155-8.083,1.685l12.903-32.741
	c1.316-3.34-0.324-7.114-3.664-8.431c-3.34-1.315-7.113,0.325-8.43,3.664l-15.813,40.126c-15.98,2.427-31.719,3.656-47.013,3.656
	c-17.25,0-33.501-1.556-47.886-3.764l-15.771-40.018c-1.316-3.339-5.089-4.98-8.431-3.664c-3.34,1.316-4.98,5.091-3.664,8.431
	l12.85,32.606c-20.428-4.063-35.359-8.931-41.315-11.022L64.44,178.364c-2.07-6.639-3.027-13.573-2.844-20.609
	c0.89-34.106,29.313-61.744,63.428-61.744c0.094,0,0.192,0,0.286,0l0.982,0.004c12.248,0.054,23.579,6.558,30.31,17.398
	c8.299,13.368,22.638,21.348,38.355,21.348s30.057-7.98,38.356-21.348c5.191-8.36,13.217-14.21,22.34-16.418l71.954,72.119
	c-0.479,3.131-1.188,6.222-2.118,9.203L298.203,263.606z M335.313,158.433l-69.145-69.303l28.936-43.357l0.004,44.305
	c0,2.174,1.088,4.205,2.897,5.41c1.81,1.205,4.103,1.426,6.107,0.588l26.075-10.891l-22.219,22.219
	c-2.539,2.539-2.539,6.654-0.001,9.192c1.27,1.27,2.933,1.904,4.597,1.904c1.663,0,3.327-0.635,4.596-1.904l22.221-22.221
	l-10.892,26.075c-0.838,2.006-0.617,4.299,0.588,6.108c1.206,1.81,3.236,2.897,5.41,2.897l44.29,0L335.313,158.433z
	 M410.416,118.366c-1.521,1.521-3.979,1.532-5.522,0.049c-0.024-0.024-0.051-0.044-0.075-0.067c-1.523-1.54-1.519-4.031,0.015-5.564
	c0.77-0.77,1.78-1.154,2.791-1.154s2.021,0.385,2.791,1.154C411.956,114.323,411.956,116.827,410.416,118.366z"/>
<g>
</g>
<g>
</g>
<g>
</g>
<g>
</g>
<g>
</g>
<g>
</g>
<g>
</g>
<g>
</g>
<g>
</g>
<g>
</g>
<g>
</g>
<g>
</g>
<g>
</g>
<g>
</g>
<g>
</g>
</svg>
