<?xml version="1.0" encoding="iso-8859-1"?>
<!-- Generator: Adobe Illustrator 19.0.0, SVG Export Plug-In . SVG Version: 6.00 Build 0)  -->
<svg version="1.1" id="Layer_1" xmlns="http://www.w3.org/2000/svg" xmlns:xlink="http://www.w3.org/1999/xlink" x="0px" y="0px"
	 viewBox="0 0 512 512" style="enable-background:new 0 0 512 512;" xml:space="preserve">
<g>
	<g>
		<path d="M360.14,213.201c62.702-65.182,63.444-120.692,63.444-123.075c0-41.697-12.029-69.385-35.753-82.291
			C343.946-16.039,275.234,21.194,256,32.645c-19.236-11.451-87.946-48.682-131.83-24.81
			c-23.724,12.906-35.753,40.593-35.753,82.291c0,2.383,0.742,57.893,63.444,123.075c-8.542,19.969-35.368,85.312-35.512,118.717
			c-0.216,3.896-2.112,42.021,3.583,81.889c8.378,58.643,28.656,90.668,60.271,95.184c0.439,0.061,0.878,0.093,1.316,0.093
			c2.227,0,4.396-0.8,6.1-2.278c2.039-1.768,3.211-4.335,3.211-7.033c0-0.457,0.242-46.151,9.267-91.277
			c3.892-19.464,9.628-40.789,18.939-57.289v123.551c0,20.534,16.706,37.241,37.241,37.241c20.534,0,37.241-16.706,37.241-37.241
			V351.076c20.948,40.496,27.782,114.054,27.793,148.7c0.001,2.698,1.105,5.264,3.144,7.03c1.704,1.477,3.838,2.278,6.063,2.278
			c0.438,0,0.86-0.032,1.299-0.093c31.615-4.517,51.885-36.541,60.263-95.184c5.695-39.868,3.795-77.993,3.579-81.889
			C395.512,298.513,368.682,233.17,360.14,213.201z M256,493.014c-6.873,0-12.875-2.328-16.101-9.31h32.201
			C268.876,490.686,262.874,493.014,256,493.014z M274.895,465.083h-37.241v-3.189l37.241-18.62V465.083z M274.895,422.453
			l-37.241,18.62v-25.73l37.241-18.62V422.453z M274.895,375.902l-37.241,18.62v-25.73l37.241-18.62V375.902z M274.895,329.351
			l-37.241,18.62V328.83c4.655-3.78,11.691-5.951,18.62-5.951c6.878,0,11.638,2.13,18.62,5.926V329.351z M339.508,487.079
			c-0.631-17.216-2.664-49.52-9.207-82.233C316.952,338.102,291.953,304.259,256,304.259c-35.953,0-60.952,33.843-74.301,100.587
			c-6.543,32.713-8.576,65.017-9.207,82.233c-36.687-20.239-39.779-116.028-37.541-154.343c0.01-0.182,0.016-0.364,0.016-0.546
			c0-34.836,36.075-116.431,36.439-117.25c1.564-3.521,0.799-7.641-1.924-10.365c-32.042-32.042-47.315-61.487-54.484-80.546
			c-7.744-20.588-7.96-33.817-7.961-33.903c0-34.344,8.753-56.524,26.016-65.926c33.723-18.367,96.537,13.403,117.893,27.194
			c0.164,0.106,0.342,0.167,0.51,0.261c0.342,0.192,0.681,0.386,1.042,0.533c0.256,0.104,0.518,0.167,0.78,0.248
			c0.315,0.095,0.623,0.201,0.945,0.264c0.276,0.053,0.552,0.068,0.83,0.097c0.323,0.033,0.642,0.074,0.968,0.074
			c0.261-0.001,0.516-0.037,0.775-0.06c0.341-0.028,0.68-0.051,1.018-0.119c0.259-0.051,0.507-0.14,0.76-0.212
			c0.322-0.093,0.642-0.174,0.956-0.304c0.304-0.124,0.585-0.292,0.876-0.449c0.215-0.117,0.442-0.199,0.651-0.334
			c21.326-13.801,84.075-45.591,117.874-27.2c17.273,9.397,26.031,31.58,26.031,65.934c0,0.52-0.714,52.719-62.445,114.449
			c-2.723,2.724-3.488,6.844-1.924,10.365c0.364,0.819,36.438,82.414,36.438,117.25c0,0.182,0.006,0.364,0.016,0.546
			C379.286,371.051,376.195,466.84,339.508,487.079z"/>
	</g>
</g>
<g>
	<g>
		<path d="M311.861,55.799c-25.668,0-46.551,20.883-46.551,46.551c0,25.668,20.883,46.551,46.551,46.551
			c25.668,0,46.551-20.883,46.551-46.551C358.412,76.682,337.529,55.799,311.861,55.799z M311.861,130.28
			c-15.401,0-27.931-12.53-27.931-27.931c0-15.401,12.53-27.931,27.931-27.931c15.401,0,27.931,12.53,27.931,27.931
			C339.792,117.751,327.262,130.28,311.861,130.28z"/>
	</g>
</g>
<g>
	<g>
		<path d="M228.069,186.142c-25.668,0-46.551,20.883-46.551,46.551c0,25.669,20.883,46.552,46.551,46.552
			c25.668,0,46.551-20.883,46.551-46.552C274.62,207.025,253.737,186.142,228.069,186.142z M228.069,260.624
			c-15.401,0-27.931-12.53-27.931-27.932c0-15.401,12.53-27.931,27.931-27.931S256,217.292,256,232.693
			C256,248.095,243.47,260.624,228.069,260.624z"/>
	</g>
</g>
<g>
</g>
<g>
</g>
<g>
</g>
<g>
</g>
<g>
</g>
<g>
</g>
<g>
</g>
<g>
</g>
<g>
</g>
<g>
</g>
<g>
</g>
<g>
</g>
<g>
</g>
<g>
</g>
<g>
</g>
</svg>
