<?xml version="1.0" encoding="iso-8859-1"?>
<!-- Generator: Adobe Illustrator 19.0.0, SVG Export Plug-In . SVG Version: 6.00 Build 0)  -->
<svg version="1.1" id="Layer_1" xmlns="http://www.w3.org/2000/svg" xmlns:xlink="http://www.w3.org/1999/xlink" x="0px" y="0px"
	 viewBox="0 0 214.139 214.139" style="enable-background:new 0 0 214.139 214.139;" xml:space="preserve">
<g>
	<g>
		<g>
			<path d="M196.807,19.169L107.919,0.088c-0.56-0.118-1.136-0.118-1.697,0L17.333,19.169c-1.863,0.399-3.192,2.044-3.192,3.95
				v48.481c0,50.324,35.754,111.221,79.703,135.744l11.257,6.282c0.612,0.343,1.29,0.513,1.969,0.513s1.357-0.17,1.969-0.513
				l11.257-6.282c43.95-24.526,79.703-85.425,79.703-135.744V23.119C199.999,21.213,198.67,19.568,196.807,19.169z M116.359,200.289
				l-9.288,5.181l-9.288-5.181c-41.665-23.252-75.56-80.982-75.56-128.689V26.387L107.07,8.169l84.848,18.217v45.214h0.001
				C191.919,119.304,158.023,177.033,116.359,200.289z"/>
			<path d="M137.019,45.974c-3.62-2.293-8.937-1.594-16.304-0.639c-4.22,0.548-9.002,1.172-13.646,1.172
				c-4.643-0.002-9.425-0.625-13.645-1.174c-7.361-0.963-12.685-1.649-16.304,0.635c-11.46,7.244-13.802,26.05-5.549,43.233
				c-0.481,3.555-0.724,7.533-0.724,11.849c0,19.922,5.475,38.782,14.644,50.446c1.034,1.31,2.764,1.851,4.36,1.365
				c1.596-0.489,2.726-1.91,2.847-3.575c1.884-26.259,9.556-40.242,14.372-40.242c4.869,0,12.585,14.153,14.408,40.724
				c0.112,1.657,1.229,3.074,2.811,3.575c0.4,0.126,0.813,0.19,1.219,0.19c1.196,0,2.356-0.533,3.137-1.495
				c9.442-11.632,15.078-30.694,15.078-50.986c0-4.537-0.296-8.708-0.88-12.429C150.738,71.637,148.278,53.088,137.019,45.974z
				 M134.672,88.749c0.643,3.567,0.971,7.706,0.971,12.303c0,13.585-2.675,26.444-7.388,36.375
				c-2.827-18.718-9.499-36.462-21.185-36.462c-11.524,0-18.186,17.357-21.074,35.76c-4.51-9.844-7.069-22.447-7.069-35.673
				c0-4.431,0.274-8.428,0.813-11.888c0.132-0.84-0.006-1.705-0.393-2.462c-6.818-13.348-5.861-28.875,2.079-33.894
				c1.314-0.71,6.889,0.012,10.955,0.541c4.463,0.58,9.519,1.239,14.688,1.239s10.228-0.66,14.691-1.24
				c4.068-0.529,9.639-1.259,10.941-0.545c7.939,5.015,8.982,20.013,2.326,33.432C134.642,87.012,134.516,87.895,134.672,88.749z"/>
		</g>
	</g>
</g>
<g>
</g>
<g>
</g>
<g>
</g>
<g>
</g>
<g>
</g>
<g>
</g>
<g>
</g>
<g>
</g>
<g>
</g>
<g>
</g>
<g>
</g>
<g>
</g>
<g>
</g>
<g>
</g>
<g>
</g>
</svg>
