<svg
  xmlns="http://www.w3.org/2000/svg"
  xmlns:xlink="http://www.w3.org/1999/xlink"
  width="50"
  zoomAndPan="magnify"
  viewBox="0 0 37.5 37.499999"
  height="50"
  preserveAspectRatio="xMidYMid meet"
  version="1.0"
><defs><clipPath id="422a022e8c"><path
        d="M 0.5 1 L 29 1 L 29 37.007812 L 0.5 37.007812 Z M 0.5 1 "
        clip-rule="nonzero"
      /></clipPath></defs><g clip-path="url(#422a022e8c)"><path
      fill="#156ee5"
      d="M 28.71875 19.800781 C 28.613281 20.039062 28.507812 20.277344 28.402344 20.511719 C 28.039062 20.546875 27.621094 20.589844 27.226562 20.644531 C 26.191406 20.789062 24.890625 21.203125 22.300781 22.402344 C 19.714844 23.601562 17.515625 26.382812 15.765625 28.910156 C 14.019531 31.4375 12.296875 37.070312 10.894531 37.285156 C 9.492188 37.5 8.347656 35.273438 7.808594 34.371094 C 7.269531 33.472656 5.933594 30.667969 5.328125 29.253906 C 4.726562 27.839844 2.941406 22.800781 1.992188 19.488281 C 1.042969 16.175781 0.671875 12.976562 0.585938 8.835938 C 0.496094 4.695312 2.796875 2.414062 4.753906 1.640625 C 4.78125 1.632812 4.804688 1.621094 4.832031 1.613281 C 5.84375 1.261719 7.613281 1.53125 9.683594 2.324219 C 11.722656 3.109375 14.054688 4.40625 16.25 6.125 C 16.25 6.125 12.46875 4.410156 9.835938 4.476562 C 7.207031 4.539062 5.371094 5.996094 4.421875 7.878906 C 3.472656 9.765625 3.257812 13.664062 3.605469 16.832031 C 3.949219 20.003906 5.328125 24.886719 6.191406 27.539062 C 7.054688 30.195312 8.585938 32.617188 9.554688 33.257812 C 10.527344 33.902344 11.109375 32.9375 12.375 30.222656 C 13.640625 27.511719 16.945312 24.429688 18.613281 23.085938 C 20.15625 21.84375 25.035156 20.101562 28.71875 19.800781 "
      fill-opacity="1"
      fill-rule="nonzero"
    /></g><path
    fill="#156ee5"
    d="M 4.636719 1.097656 C 6.046875 0.5 9.441406 0.785156 12.691406 2.613281 C 15.941406 4.441406 18.613281 6.011719 21.835938 5.125 C 25.054688 4.242188 28.851562 3.039062 31.179688 4.296875 C 33.511719 5.554688 33.480469 8.921875 32.5625 12.351562 C 31.640625 15.777344 27.902344 24.457031 26.003906 27.167969 C 24.105469 29.882812 23.503906 30.996094 23.503906 30.996094 C 35.953125 18.316406 37.246094 8.09375 36.773438 6.125 C 36.300781 4.15625 35.753906 3.382812 34.773438 2.753906 C 33.796875 2.128906 31.296875 0.871094 27.84375 1.839844 C 24.394531 2.8125 23.070312 3.496094 22.152344 3.8125 C 21.230469 4.125 18.886719 4.324219 17.621094 3.984375 C 16.355469 3.640625 12.171875 1.042969 9.902344 0.613281 C 6.515625 0 4.636719 1.097656 4.636719 1.097656 "
    fill-opacity="1"
    fill-rule="nonzero"
  /></svg>
