<svg version="1.0" xmlns="http://www.w3.org/2000/svg" width="1280" height="1280" viewBox="0 0 960 960"><path d="M285 30.1c-11 2-16 3.2-15.6 3.7.3.2 8.1.6 17.3.7 16.5.2 18.5.5 40.3 5.5 16.9 3.9 40.4 13.8 61 25.7 17 9.8 38.7 21.1 52 27.1 24.3 10.8 48.4 15.5 67.9 13.2 8.6-1.1 26.5-4.8 33.1-6.9 2.6-.9 3.2-1.1 21-6 32.9-9 57.5-12.7 78.5-11.8 11.2.4 14.5 1 22.9 3.8 11.6 3.8 19.3 8.5 26.2 16.1 6.5 7.2 10.6 15.7 14.6 30.3 1.7 6.6 1.8 43.2 0 53.5-4.1 23.9-9.8 44.5-20.6 74.8-5.7 15.9-26.4 66.5-34.3 84.2-1.4 3-4.2 9.3-6.3 14-11.7 26.2-28 59.2-37.7 76.1-1.2 2-2.7 4.7-3.5 6-.7 1.3-7.8 12.3-15.7 24.4-23.7 35.9-29.2 44.7-28.9 45.6.6 1.8 48.8-52.5 68.9-77.6 7.1-8.9 29.8-39.5 37-49.9 28.8-41.8 54.4-87.6 69.6-124.6 1.9-4.7 4.2-10.1 5-12 6.8-15.9 14.8-40.7 19.7-61.5 6.9-28.8 8.7-55.9 4.7-70.5-8.5-31.7-17.7-43.3-43.8-55.6-12.4-5.9-12.7-6-19.3-7.9-21.5-6.2-52-6.2-75.5 0-15.1 4-42.8 12.9-57.5 18.5-4.7 1.7-11 4.1-14 5.2-3 1.1-7.8 3-10.7 4.3-9.5 4.4-17.6 6.5-30.3 8-19.7 2.3-37.4 1.6-51.2-2-3.2-.8-23-10-44-20.4-35.1-17.3-53.6-25.8-65-29.5-4-1.3-6.4-1.9-20.6-4.6-6.3-1.2-38.7-1.2-45.2.1z"/><path d="M261.2 46.5c-14.2 4-29.9 14.9-42 29-9.2 10.6-15.9 22.6-20.7 36.8-6.5 19.4-7 23.2-6.8 53.2.4 63.5 8.1 120 23.4 171.5 1.7 5.8 3.4 11.8 3.9 13.5 6.9 25.6 39.7 120 47.6 137.3 1.3 2.9 2.4 5.5 2.4 5.8 0 .3 2.2 5.3 5 11.1 2.7 5.8 5 10.7 5 10.9 0 .2 4.9 10.4 10.8 22.7 28.4 58.3 45.8 79.1 63.5 76.1 10-1.6 23.4-21.8 41.7-62.4 23.9-53.3 34.3-71.1 62-106.2 18.5-23.5 49.6-52.8 65.7-61.9 13.5-7.7 48.5-22.8 64.7-28 13.2-4.3 31.3-7.6 42.3-7.9 1.1 0 5.3-8.1 5.3-10.2 0-1-9.6-.4-18.5 1.2-2.7.5-7.9 1.4-11.5 2-23.5 4-64.5 16.1-85.5 25.1-25.8 11-34.8 15.9-45.6 25-12.9 10.7-41.1 37.2-48.4 45.5-3.8 4.3-9.4 10.5-12.3 13.7-15.5 17.2-26.5 34.2-40 61.7-15.6 31.9-21.7 40.2-30.8 41.6-5.6.8-9.3-1.2-17.5-9.7-11.1-11.3-28.4-39.8-35.9-58.9-1.2-3-2.8-6.9-3.5-8.5-1.2-2.7-3.8-9.9-8-22-1.4-4.1-10.6-35-13.1-44.3-.8-2.8-2.1-7.8-3-11-9.8-35.9-17.3-70.5-21.8-101.7-3.3-22.2-4.5-62.8-2.6-84 3.8-41.4 10.1-63.3 23.6-81.5 7.1-9.7 11.4-14 19.4-19.9 14.1-10.3 28.5-16.1 46.6-18.6 20.2-2.9 47.7 1.6 81.7 13.2 7 2.4 15.8 5.7 19.4 7.3 3.6 1.7 6.8 2.8 7.1 2.5.3-.3.3-.6.1-.8-20.8-15.4-34.6-24.6-52.9-35.1-19.3-11.1-47.5-23.1-70-29.7-17.9-5.3-40.6-7.3-50.8-4.4zM665 669.6c0 49.4.2 54.6 1.6 54 .9-.3 4.9-.6 9-.6h7.4l-.2-53.8-.3-53.7-8.7-.3-8.8-.3v54.7zM132 622c-9.4 1.6-17.4 6.4-21.3 12.8-8.5 13.7-5 31.3 7.6 38.6 3.8 2.2 13 5.4 24.7 8.6 8.5 2.4 12.7 4.2 15.3 6.6 7.6 7 2.6 17.5-8.9 19-6.8.8-15.2-.1-19-2.1-1.6-.8-4.8-3.3-7.1-5.6l-4.1-4-7.1 5.3c-3.9 2.9-7.1 5.8-7.1 6.5 0 2.2 9.1 10.4 14.3 12.8 7.9 3.7 14.8 4.8 27.7 4.3 13.9-.6 20.3-2.8 26.7-9 5.4-5.3 8.3-12.6 8.3-21.2 0-7.1-1.2-11.4-4.8-16.8-3.8-5.8-9.8-9.1-23.9-13.2-20.2-5.7-20.4-5.8-24-9.2-3.6-3.5-4.1-6-1.8-10.4 2.3-4.5 6.5-6.2 15.6-6.2 6.7 0 8.6.4 12.3 2.6 2.4 1.4 5.5 3.9 6.9 5.5 2.3 2.8 2.6 2.9 4.8 1.4 4.7-3.2 11.9-9.5 11.9-10.4 0-.5-1.8-2.9-4-5.3-8.5-9.2-25.9-13.5-43-10.6zM197 636.5c0 7.7-.3 10.5-1.2 10.6-.7.1-2.9.2-4.8.3l-3.5.1-.3 7.2-.3 7.2 4.8.3 4.8.3.5 24.5c.5 23.7.6 24.6 3 28.8 3.2 5.6 7.1 7.9 15.3 9.1 6.6.9 19.4-.1 20.8-1.7.3-.4-.1-3.7-1-7.5-1.2-5.4-1.8-6.6-3.1-6.1-3 1.4-10.3 1.6-12.5.4-4-2.2-4.5-5-4.5-27v-21h17.1l-.3-7.3-.3-7.2h-16L215 637l-.5-10.5-8.7-.3-8.8-.3v10.6zM533.8 636.7l-.3 10.8h-9v14l4.8.3 4.7.3v21.4c0 23 .8 28.8 4.7 34.3 3.1 4.2 7.1 6.2 14.7 7.3 6.2.8 18.1-.2 19.7-1.8 1.4-1.4-1.6-13.9-3.2-13.4-.8.2-3.7.6-6.5.8-4.3.5-5.4.2-8-2l-2.9-2.5v-43.7l8.8-.3 8.8-.3-.3-7.2-.3-7.1-7.5-.2c-4.1 0-8.1-.1-8.7-.2-1-.2-1.3-3.1-1.3-10.7V626h-17.9l-.3 10.7zM267.5 646.3c-7.7 1.7-12.4 4-16.2 8-7.4 7.7-9.8 15.9-9.7 32.7.1 14.4 1.9 20.7 8 27.9 7.1 8.2 20.4 12.1 34.9 10 12.2-1.7 19.6-6.6 24.2-15.9 3.4-7 4.3-11.7 4.3-23.6 0-25.9-10.2-38.3-32.8-39.9-3.7-.2-9.4.1-12.7.8zm19.8 17.2c1.4.9 3.6 3.8 4.9 6.3 2 4.1 2.3 6.2 2.3 16.2 0 10.7-.2 11.9-2.7 16.1-3.4 5.8-6.5 7.4-14.7 7.4-10.7 0-14.9-4.1-17.2-16.8-1.4-7.3-.1-18 2.8-23.7 1.5-3.1 5.5-6.4 8.8-7.3 3.6-1 13.2.1 15.8 1.8zM363 646.4c-5.3 1.4-10.5 4.4-13.9 8-3.1 3.2-4.1 2.5-4.1-2.7v-4.3l-8.2.2c-4.6.1-8.6.2-9 .3-.5.1-.8 17-.8 37.6V723h7.4c4.1 0 8.1.3 9 .6 1.4.6 1.6-2.1 1.6-25.1v-25.8l4.3-3.9c4.4-4.2 11.2-7.8 14.6-7.8 3.2 0 6.8 1.7 7.7 3.7.5 1 1.1 14.6 1.4 30.1l.5 28.4h17l.3-25.3c.2-24.6.3-25.4 2.5-27.7 6.7-7.2 16.4-10.9 21-7.9 4 2.6 4.7 7.6 4.7 34.9 0 14 .2 25.7.4 25.9.2.2 4.3.3 9 .1l8.6-.3v-26.2c0-35.8-1.2-42.6-8.3-47.4-1.8-1.3-5.8-2.8-8.9-3.4-7.6-1.5-14.7.6-23.2 7l-6.5 4.9-2.5-4.2c-2.6-4.4-4.7-5.9-11.1-7.5-5-1.4-7.8-1.3-13.5.3zM471.5 646.4c-9.1 1.8-19.5 7.8-19.5 11.1 0 .7 2.8 3.1 6.2 5.3 6.1 4 6.3 4.1 8.3 2.3 4.1-3.8 8.2-5.1 15.9-5.1 9 0 12 1.2 14.1 5.5 3.5 7.6 1.2 10.5-8.2 10.5-2.6 0-7.6.5-11.2 1.1-19.5 3.1-27.1 10.2-27.1 25.3 0 9.5 3.7 16.1 11.2 20 10.1 5.1 23.7 3.6 33-3.5 2-1.6 3.9-2.9 4.2-2.9.3 0 .6 1.7.8 3.7l.3 3.6h8l8-.1v-28.9c0-20.5-.4-30-1.3-33-2.6-8.7-9.1-13.2-21.9-15.2-8.7-1.3-12.9-1.3-20.8.3zm26.3 49.3.3 7.1-4.3 2.9c-9.4 6.4-18.4 7.4-23.2 2.7-5-5.1-2.3-13.9 5.3-17.2 4-1.7 12.8-3.1 18.1-2.8l3.5.1.3 7.2zM605 646.4c-15.8 3.5-23.3 12.4-26 30.9-1.1 7.2-1.1 10.3-.1 17 3.5 21.7 14.4 31.1 36.3 31 11.9-.1 19-2.4 24.8-8.3 7.5-7.5 10.9-17.3 10.9-31.5 0-13.1-3-22.7-9.4-30.3-4.2-4.8-9.8-7.6-18.6-9.1-7.9-1.3-10.7-1.3-17.9.3zm19.8 17.5c5.2 3.7 7.2 9.6 7.2 21.6 0 12.1-2 17.9-7.4 21.8-4.5 3.2-15.7 3.2-20.3-.1-9.2-6.5-10-33-1.3-41.9 3.6-3.7 5.5-4.3 13.2-3.8 3.8.2 6.7 1 8.6 2.4zM724 646.1c-18.9 3.7-27 15.6-27 39.8 0 13.1 1.4 18.9 6 26.2 5.9 9.1 14.7 13 29.6 13.1 19.1.1 27.8-5.7 34.5-23.2 1.9-4.8 1.9-28.2 0-33-4.4-11.2-8.5-16.6-15.4-19.8-4.4-2.1-15.4-4.3-20.3-4.1-1.6.1-4.9.5-7.4 1zm19 17.9c4 2.8 5.5 6 7 14.5 1 5.6 1 8.6 0 14.3-2.1 12.8-7.6 17.7-18.8 16.9-5.3-.4-6.9-1-9.4-3.3-5.3-5.1-6.2-7.9-6.2-19.9-.1-14.6 2.4-20.6 9.9-24.2 4.3-1.9 13.6-1.1 17.5 1.7zM803.5 646.4c-7.1 1.8-10.7 3.9-15.2 9-6.2 7-8.7 15.7-8.7 29.6.1 19.8 5.2 30.4 17.4 35.9 8.2 3.7 22.7 2.3 30.2-3 4-2.9 4.8-2.4 4.8 2.8-.1 6.7-2.7 11.4-7.5 13.8-5.9 2.9-21.4 2.7-30.9-.4-3.8-1.2-7.2-1.9-7.6-1.4-1.4 1.5-4.9 12.8-4.2 13.5 2.4 2.3 14.7 5 25.3 5.5 19.3.9 33.1-3.6 38.3-12.6 4.1-7.1 4.6-12.7 4.6-52.9V648l-2.2-.1c-10.5-.7-11.2-.5-12.7 2.9-.8 1.7-1.8 3.2-2.3 3.2-.4 0-2.7-1.4-5-3-4.2-3-13.3-6.1-17.3-5.9-1.1 0-4.2.6-7 1.3zm22.3 17.7c6.1 3.4 6.2 3.8 6.2 20.5v15.3l-2.7 1.9c-5.7 4-9.7 5.4-15.3 5.5-7.1 0-10.9-2.3-13.9-8.8-3.1-6.6-3-20.1.3-27.1 2.3-5 6.1-8.6 10.1-9.7 3.5-1 11.4.3 15.3 2.4zM173.9 768c-3.3 6.2-2.3 6.6 1.4.5 2.9-4.9 3.1-5.5 2-5.5-.5 0-2 2.3-3.4 5zM260.2 774.2c-.2 10.2-1.1 12.1-4.2 9.3-1-.9-2.4-1.5-3-1.3-.5.1.8 1.4 3 2.8l4 2.5v24.4l-3.7 3c-4.2 3.5-9.3 4.8-13.2 3.5-6.1-2.2-9.4-13.7-7.1-24.8.9-4.6 1.9-6.2 5.2-9.1 2.3-1.9 3.6-3.5 2.8-3.5-.7 0-3 1.8-5.1 4-3.1 3.2-3.9 4.9-4.5 9.6-1 8.1.2 17 2.7 20.6 3.9 5.4 11.3 6.4 17.3 2.3 4.5-3 5.6-3.1 5.6-.5 0 1.1.3 2 .8 2 .6 0 .6-30.5-.1-47.5-.3-5.8-.3-5.3-.5 2.7zM664.2 791.7c-.1 15 .1 27.3.6 27.3.4 0 .6-2.9.4-6.4-.3-6-.2-6.6 2.7-9.7 3.1-3.3 3.1-3.4 4.6-1.4 7.4 9.8 13.9 17.5 14.8 17.5.5 0 .4-.8-.5-1.8-8-9.5-13.8-17.1-13.8-18.2 0-.7 3.2-4.8 7.1-9.2 3.9-4.3 6.6-7.8 6.1-7.8s-4.9 4.5-9.8 10-9.5 10-10.1 10c-.9 0-1.3-4.7-1.6-18.8-.2-15.8-.3-14.5-.5 8.5zM210.2 778.2l-.2 12.7-3.1 2.1c-1.6 1.2-2.8 2.5-2.4 2.8.3.3 1.1 0 1.7-.6 3.1-3.1 3.7-1.3 4.1 11.5l.3 12.8.2-13.7.2-13.7 3.1-2.1c1.6-1.2 2.8-2.5 2.4-2.8-.3-.3-1.1 0-1.7.6-3.1 3.1-3.7 1.3-4.1-10.6l-.3-11.7-.2 12.7zM398 792.5c0 17 .4 26.5 1 26.5s1-9.5 1-26.5-.4-26.5-1-26.5-1 9.5-1 26.5zM835.1 792.5c0 15.2.4 26.5 1 26.5.5 0 .8-.8.7-1.8-.6-6.9.3-11.9 2.7-14.6 1.5-1.7 2.9-2.6 3.4-2 .4.5 3.9 4.7 7.6 9.4 3.7 4.7 7.2 8.6 7.7 8.8 1 .4 1.1-1.5 0-2-1-.4-13.3-15.9-13.9-17.5-.3-.7 2.7-4.7 6.6-9 3.9-4.2 6.9-7.8 6.7-8.1-.4-.4-5.9 5.3-15.8 16.3-2 2.2-3.9 3.7-4.3 3.3-.4-.3-.6-8.5-.5-18.2 0-11.6-.3-17.6-1-17.6s-1 8.7-.9 26.5zM65.3 769.1c-6.1 1.4-9.3 5.6-9.3 12 0 7.7 1.5 8.8 19.5 14.1 5.8 1.7 8.6 3.8 10.2 7.5 1.9 4.7 0 10.9-4.1 13.4-6.7 4.1-17.1 3.1-22.2-2.2-1.5-1.6-3.2-2.9-3.8-2.9-2.2 0 6.1 7.1 9.4 8 12.6 3.5 23-2.2 23-12.6 0-7-3.2-9.8-15.3-13.5-5.6-1.8-11-3.7-11.9-4.3-3-1.8-4.2-6.2-3-10.5 1.6-5.1 4.2-7.2 9.6-7.8 6.7-.8 11.2.4 14.6 3.9 3.4 3.3 5.5 3.1 2.4-.3-4.1-4.5-11.8-6.5-19.1-4.8zM327 771.4c0 .9.7 1.6 1.6 1.6 1.7 0 1.4-2.2-.4-2.8-.7-.2-1.2.3-1.2 1.2zM473 771.4c0 .9.7 1.6 1.6 1.6 1.7 0 1.4-2.2-.4-2.8-.7-.2-1.2.3-1.2 1.2zM573 794.5V819l13.8-.2 13.7-.2-12.5-.6-12.5-.5-.3-23.8c-.1-14.6-.6-23.7-1.2-23.7s-1 9.1-1 24.5zM128.7 783c1.8 1 3.9 3 4.7 4.3 2.6 3.9 3.6 11.9 2.5 18.5-2.2 12.1-9.9 16.2-19.1 10.3L112 813v-25l4.2-3c2.2-1.6 3.6-3 3.1-3-.6 0-2.2.9-3.6 2s-2.8 2-3.1 2c-.3 0-.6-.9-.6-2s-.4-2-1-2-1 9.2-1 25.5.4 25.5 1 25.5 1-3.7 1-9c0-5 .4-9 .9-9 .4 0 2.1 1 3.7 2.2 2.1 1.7 4.2 2.3 8.2 2.3 4.8 0 5.7-.4 8.2-3.2 3.7-4.2 5.3-10.1 4.8-18.3-.5-7.8-3-13.6-6.9-15.5-4.2-2.2-5.9-1.8-2.2.5zM165.3 782.6c-4.3 2.2-6.6 7.4-7.1 16.3-.5 8.8.9 13.9 5 17.8 2.6 2.5 3.7 2.8 9.3 2.8 5.7 0 6.7-.3 9.4-2.9 1.7-1.7 3.6-4.6 4.1-6.5 1.3-4.6 1.3-14.6 0-19.2-1-3.7-5.1-8.2-8.5-9.3-2-.6-2-.6-.1.9 1.1.8 2.3 1.5 2.7 1.5.4 0 1.7 1.7 2.9 3.7 2.9 4.9 3.3 19 .7 24-2.8 5.4-6.5 7.6-12 7-6-.5-9.2-3.4-11.2-10.1-3.3-11.1-.5-21.6 7.1-26.3 2.7-1.7 1.4-1.5-2.3.3zM358.4 782c-4.5 1.8-6.6 6.6-7.1 15.8-.9 15 2.3 21.1 11.5 22 5 .4 9.6-1.1 12.1-4.2 1.9-2.3.1-1.9-2.5.5-1.2 1.1-4 2.3-6.3 2.6-8.6 1.2-13.1-3.7-13.1-14.1V799h9.8c12.5 0 14.2-.5 14.2-3.9 0-7.1-3-12.2-8-13.6-2.2-.6-2.2-.4.6 1.3 3 1.9 4.6 4.8 5.8 10.3.9 4.2-1 5-12 4.7l-9.9-.3.1-4.9c0-4.5.4-5.3 3.9-8.3 2.1-1.8 3.6-3.3 3.4-3.2-.2 0-1.4.4-2.5.9zM434.5 782.6c-1.6.8-3.7 2.3-4.5 3.2-1.3 1.4-1.3 1.5.1.4 1-.7 3.4-2.1 5.5-3.2 2.2-1.1 3.5-1.9 2.9-2-.5 0-2.3.7-4 1.6zM441.7 781.7c1.3.2 3.2 1.6 4.3 3 1.8 2.3 2 4 2 18.4 0 8.8.4 15.9.8 15.9 1.1 0 1.5-15.5.7-25.7-.8-9.2-2.7-12.4-7.3-12.2-2.3.2-2.4.2-.5.6zM501.3 782.5c-1.8.8-3.3 1.9-3.3 2.6 0 .8.7.6 1.8-.4 1-1 2.4-1.7 3-1.7.6 0 1.4-.5 1.7-1 .8-1.2.7-1.2-3.2.5zM514.7 782.6c4.4 2.4 5.1 4.7 5.2 17.2l.1 11-3.9 3.1c-9.1 7.2-16.3 6.7-18.1-1.4-1-4.6.5-10.1 3.3-12 1.3-.8 4.7-1.9 7.7-2.4 4.3-.7 4.7-.9 2.1-1-5.1-.2-11 2-13.2 4.7-3.5 4.5-1.8 15.9 2.6 17.6 3.9 1.5 8.4.5 13.5-2.9 2.9-1.9 5.4-3.5 5.6-3.5.2 0 .4 1.3.4 3 0 1.6.5 3 1 3 1.3 0 1.3-26.3 0-31.1-1.2-4.3-2.4-5.5-6.5-6.3l-3-.7 3.2 1.7zM624.5 781.9c-5.1 2.2-7.5 8.2-7.5 19.3 0 12.9 3.3 17.9 12.3 18.5 4 .3 6-.1 8.5-1.6 1.7-1.2 3.2-2.6 3.2-3.3 0-.6-1.1-.1-2.4 1.1-1.3 1.2-4.2 2.5-6.5 2.8-8.4 1.1-12.9-3.6-13.4-13.9l-.2-5.3 10.5-.6 10.5-.5-10.2-.2c-5.6-.1-10.4-.6-10.8-1.1-1.4-2.4 1.5-9.7 5.1-12.9 4-3.4 4-3.5.9-2.3zM635.2 782.6c4.4 2.3 7.9 11.3 5.6 14.1-1.3 1.5-.4 2.8 1.1 1.8 3.3-2-1-14.8-5.4-16.5-3.8-1.4-4.4-1.2-1.3.6zM712.5 782c-1.2.4-2.7 1.5-3.5 2.5-1 1.2-.5 1.1 2.3-.5 2-1.2 3.7-2.4 3.7-2.6 0-.5 0-.5-2.5.6zM725.1 782.9c2 1.1 3.9 2.7 4.2 3.5 1.1 2.7.7 23.9-.4 25.3-.8.9-.8 1.3 0 1.3.6 0 1.1 1.3 1.1 3 0 1.6.4 3 .9 3 1.2 0 1.3-26.4.1-31-1.2-4.4-2.4-5.6-6.5-6.5-2.9-.6-2.9-.5.6 1.4zM766.5 782.4c-1.7.7-3.7 2.1-4.5 3.2-1.2 1.4-.9 1.4 1.4-.4 1.7-1.3 4.3-2.2 6.3-2.2s3.2-.4 2.8-1c-.8-1.3-2.3-1.2-6 .4zM795.2 782c-2.8 1.2-5.6 7.4-4.7 10.7.9 3.8 3.8 5.9 11.3 8.2 4.5 1.3 7.7 2.9 8.7 4.3 2.1 3.1 1.9 8.1-.4 10.9-1.6 2-2.8 2.4-7.9 2.4-5 0-6.5-.4-8.6-2.4-1.4-1.4-2.9-2.2-3.2-1.8-1.9 1.9 5.7 5.7 11.6 5.7 8 0 12.7-5 11.3-12.1-.7-3.6-4.1-6.1-11.6-8.5-7.2-2.2-9.7-4.5-9.7-8.8 0-5.1 2.7-7.8 8.6-8.3 4.3-.5 5.4-.2 8.2 2.2 3.5 2.9 4.5 2 1.2-1-2.3-2.1-11.2-3-14.8-1.5zM883.5 782c-2 .8-5.3 4-4.2 4 .4 0 2.3-1.1 4.3-2.5 3.7-2.5 3.6-3.1-.1-1.5zM897 783.2c4 2.7 6.1 8.8 4.2 11.9-.8 1.2-.8 2-.2 2.4 1.6 1 1.2 12.1-.5 13.9-1.8 1.8-1.9 2.7-.2 2.3.7-.1 1.3 1 1.5 2.5.2 1.6.6 2.8 1 2.8.8 0 .5-25.7-.3-30.6-.6-3.5-2.8-5.8-6.5-6.9-2.1-.6-1.9-.3 1 1.7zM293.3 782.7c5.9.2 10.7.6 10.7 1 0 .3-4.8 7.8-10.6 16.6s-10.8 16.6-11.1 17.3c-.4 1.1 1.9 1.4 12.3 1.2l12.9-.2-11.5-.5c-8.7-.5-11.4-.9-11.2-1.9.1-.7 4.7-8 10.3-16.3 5.5-8.3 10.3-15.7 10.6-16.5.4-1.2-1.4-1.4-11.3-1.2l-11.9.2 10.8.3zM327 800.5c0 11.7.4 18.5 1 18.5s1-6.8 1-18.5-.4-18.5-1-18.5-1 6.8-1 18.5zM424.1 800.5c-.1 12.3.2 18.5.9 18.5.6 0 1-5 1-14.3 0-9.8.4-14.7 1.2-15.5.9-.9.9-1.2 0-1.2-.7 0-1.2-1.3-1.2-3s-.4-3-.8-3c-.5 0-1 8.3-1.1 18.5zM473 800.5c0 11.7.4 18.5 1 18.5s1-6.8 1-18.5-.4-18.5-1-18.5-1 6.8-1 18.5zM755 800.5c0 11.7.4 18.5 1 18.5s1-5.3 1-13.9c0-11.1.3-14.3 1.5-15.5.8-.8 1.5-1.7 1.5-2 0-.3-.7-.3-1.5 0-1.1.5-1.5-.1-1.5-2.5 0-1.7-.4-3.1-1-3.1s-1 6.8-1 18.5zM712.3 799.1c-3.1 1.5-4.5 3-5.3 5.5-1.3 3.9-.6 10 1.5 12.7 1.6 2.2 8.5 3.4 11.1 1.9 1.5-.8.9-.9-2.4-.5-6.1.8-9.2-2.2-9.2-8.8 0-2.6.3-5.5.6-6.4.9-2.2 5.7-4.5 11.3-5.5l4.6-.8-4-.1c-2.3 0-5.8.8-8.2 2z"/><path d="M884.8 798.3c-5.6 2.5-6.8 4.5-6.8 11.3 0 5.6.3 6.5 2.6 8.3 4.5 3.5 12.6 2.2 16.5-2.5 1-1.3.4-1.1-1.9.5-7.9 5.5-15 3.3-15.9-5.2-.9-7.7 2.2-11 11.9-12.6l5.3-.9H892c-2.5 0-5.7.5-7.2 1.1zM723.5 816.2l-2 2.1 2.2-1.2c2.3-1.2 4-3.1 2.6-3-.4 0-1.7 1-2.8 2.1z"/></svg>