<?xml version="1.0" encoding="utf-8"?>
<!-- Generator: Adobe Illustrator 23.0.3, SVG Export Plug-In . SVG Version: 6.00 Build 0)  -->
<svg version="1.1" id="Layer_1" xmlns="http://www.w3.org/2000/svg" xmlns:xlink="http://www.w3.org/1999/xlink" x="0px" y="0px"
	 viewBox="0 0 153.6 153.6" style="enable-background:new 0 0 153.6 153.6;" xml:space="preserve">
<style type="text/css">
	.st0{fill:#70D1C0;}
	.st1{fill:#66C4A3;}
	.st2{fill:#4C9AE8;}
	.st3{fill:#57B9E2;}
	.st4{fill:#E43BA0;}
	.st5{fill:#B060FF;}
	.st6{fill:#7B78EB;}
	.st7{fill:#52E3D6;}
	.st8{fill:#3F93E4;}
	.st9{fill:#F19236;}
	.st10{fill:#FF4F4F;}
	.st11{fill:#2CC6E2;}
	.st12{fill:#78D32E;}
	.st13{fill:#E23F40;}
	.st14{fill:#40A4E2;}
	.st15{fill:#37CFA0;}
	.st16{fill:#3EC1CB;}
	.st17{fill:#3FC2CC;}
	.st18{fill:#3FC2CB;}
	.st19{fill:#42C3CC;}
	.st20{fill:#40C2CC;}
	.st21{fill:#49C5CE;}
	.st22{fill:#41C2CC;}
	.st23{fill:#43C3CC;}
	.st24{fill:#42C2CC;}
	.st25{fill:#43C3CD;}
	.st26{fill:#F0F8F8;}
	.st27{fill:#F1F8F8;}
	.st28{fill:#EEF7F7;}
	.st29{fill:#EBF6F7;}
	.st30{fill:#ECF7F7;}
	.st31{fill:#E0F3F4;}
	.st32{fill:#E6F5F5;}
	.st33{fill:#E8F5F6;}
	.st34{fill:#EFF7F7;}
	.st35{fill:#3FC1CB;}
	.st36{fill:#45C4CD;}
	.st37{fill:#46C4CD;}
	.st38{fill:#44C3CD;}
	.st39{fill:#45C3CD;}
	.st40{fill:#143755;}
	.st41{fill:#DDB833;}
	.st42{fill:#E2BB3C;}
	.st43{fill:#67C7A5;}
	.st44{fill:#D573B0;}
	.st45{fill:#EF6067;}
	.st46{fill:#3BCBF2;}
	.st47{fill:#F569B0;}
	.st48{fill:#3BC6E5;}
	.st49{fill:url(#SVGID_1_);}
	.st50{fill:url(#SVGID_2_);}
	.st51{fill:url(#SVGID_3_);}
	.st52{fill:url(#SVGID_4_);}
	.st53{fill:url(#SVGID_5_);}
	.st54{fill:url(#SVGID_6_);}
	.st55{fill:url(#SVGID_7_);}
	.st56{fill:url(#SVGID_8_);}
	.st57{fill:url(#SVGID_9_);}
	.st58{fill:url(#SVGID_10_);}
	.st59{fill:url(#SVGID_11_);}
	.st60{fill:url(#SVGID_12_);}
	.st61{fill:#FFFFFF;}
	.st62{fill:url(#SVGID_13_);}
	.st63{fill:url(#SVGID_14_);}
	.st64{fill:url(#SVGID_15_);}
	.st65{fill:url(#SVGID_16_);}
	.st66{fill:url(#SVGID_17_);}
	.st67{fill:url(#SVGID_18_);}
	.st68{fill:url(#SVGID_19_);}
	.st69{fill:url(#SVGID_20_);}
	.st70{fill:url(#SVGID_21_);}
	.st71{fill:url(#SVGID_22_);}
	.st72{fill:url(#SVGID_23_);}
	.st73{fill:url(#SVGID_24_);}
	.st74{fill:url(#SVGID_25_);}
	.st75{fill:url(#SVGID_26_);}
	.st76{fill:url(#SVGID_27_);}
	.st77{fill:url(#SVGID_28_);}
	.st78{fill:url(#SVGID_29_);}
	.st79{fill:url(#SVGID_30_);}
	.st80{fill:url(#SVGID_31_);}
	.st81{fill:url(#SVGID_32_);}
	.st82{fill:url(#SVGID_33_);}
	.st83{fill:url(#SVGID_34_);}
	.st84{fill:url(#SVGID_35_);}
	.st85{fill:url(#SVGID_36_);}
	.st86{fill:url(#SVGID_37_);}
	.st87{fill:url(#SVGID_38_);}
	.st88{fill:url(#SVGID_39_);}
	.st89{fill:url(#SVGID_40_);}
	.st90{fill:url(#SVGID_41_);}
	.st91{fill:url(#SVGID_42_);}
	.st92{fill:url(#SVGID_43_);}
	.st93{fill:url(#SVGID_44_);}
	.st94{fill:url(#SVGID_45_);}
	.st95{fill:url(#SVGID_46_);}
	.st96{fill:url(#SVGID_47_);}
	.st97{fill:url(#SVGID_48_);}
	.st98{fill:url(#SVGID_49_);}
	.st99{fill:url(#SVGID_50_);}
	.st100{fill:url(#SVGID_51_);}
	.st101{fill:url(#SVGID_52_);}
	.st102{fill:url(#SVGID_53_);}
	.st103{fill:url(#SVGID_54_);}
	.st104{fill:url(#SVGID_55_);}
	.st105{fill:url(#SVGID_56_);}
	.st106{fill:url(#SVGID_57_);}
	.st107{fill:url(#SVGID_58_);}
	.st108{fill:url(#SVGID_59_);}
	.st109{fill:url(#SVGID_60_);}
	.st110{fill:url(#SVGID_61_);}
	.st111{fill:url(#SVGID_62_);}
</style>
<g>
	<g>
		<path d="M139.6,132.8c-0.3-8.5-6.6-16.1-15.2-18.5c-1.3-0.4-3.7,0.2-3.7-1.9c-0.1-3.6-1-7.4,1.9-10.7c4-4.4,4.1-11.3,0.3-15.8
			c-1.6-1.9-2-3.7-2.1-6.1c-0.3-10-2.7-19.5-9.6-27c-2.6-2.9-2.1-4.2,0.4-6.5c2.7-2.6,7.1-4.7,7.1-8.4c0.1-4.4,2.5-6.5,5-8.8
			c1.8-1.7,1.5-2.8-0.1-4.4c-2.9-2.7-5.6-5.4-8.3-8.3c-1.5-1.6-2.5-1.8-4-0.1c-2.5,2.7-4.7,6-9.3,5.1c-1.1-0.2-2,1-2.7,1.8
			C88.5,34,77.6,44.9,66.7,55.8c-2.6,2.6-2.8,5.4-0.1,8.1c3.2,3.3,6.5,6.5,9.8,9.8c2.7,2.7,5.4,2.6,8.1,0c3-2.9,6.2-5.7,8.8-8.9
			c2.5-3,4-1.9,5.6,0.7c5,7.7,5.6,15.8,1.3,23.8c-7.1,13.6-26.6,16.1-36,4.3c4.6,0,8.7,0,12.7,0c1.7,0,3.1-0.5,3.2-2.5
			c0-2-1.3-2.6-3.1-2.6c-15.8,0-31.6,0-47.4,0c-1.7,0-3.2,0.5-3.3,2.4c-0.1,2.3,1.6,2.6,3.5,2.6c3.5,0,7,0,10.5,0c1.1,0,2.4-0.3,3,1
			c3.5,7.8,9.1,13.8,17.1,19.2c-8.2,0-15.2-0.1-22.1,0c-10.5,0.2-19.3,8.9-19.6,19.2c-0.1,2.8,0.8,3.5,3.5,3.5
			c38-0.1,76.1-0.1,114.1,0C139.3,136.5,139.7,135.3,139.6,132.8z M120.5,93.7c-0.1,4.2-3.3,7.5-7.4,7.4c-4.2-0.1-7.2-3.3-7.2-7.6
			c0-4.2,3.3-7.5,7.4-7.4C117.5,86.2,120.5,89.4,120.5,93.7z M115.3,112.4c-0.3,2.2-2.4,1.3-3.8,1.3c-3.3,0.1-6.6,0-10.6,0
			c3.1-2.6,5.6-4.8,8.1-6.8c1.7-1.4,4.2-1.3,5.5-0.4C116.5,107.8,115.6,110.4,115.3,112.4z M113.6,22.5c2,0.7,3.9,2.5,4.5,4.5
			c0.3,1-1.5,2.4-3.2,2.9c-1.7-1.4-3.9-2.7-4.3-4.8C110.3,24.1,112.1,22,113.6,22.5z M83.1,68c-2,2.1-3.4,2.4-5.3,0.1
			C76,66,74,64,71.9,62.2c-2.1-1.8-1.6-2.9,0.1-4.6c9.8-9.6,19.5-19.3,29.1-29.1c2-2.1,3.2-1.9,5,0.1c1.9,2.2,4.1,4.2,6.2,6.3
			c0.6,0.6,1,1.3,1.5,2c-0.8,0.8-1.4,1.6-2.1,2.3C102.1,48.8,92.5,58.3,83.1,68z M101.2,60c-2.6-3.2,1.4-3.8,2.4-5.4
			c1.3-2,2.3-0.3,3.2,0.6c5.3,5.9,8.2,12.8,8.6,19.4c0.1,6.3-1.1,7.3-6,7c-1.9-0.1-1.4-1.4-1.4-2.4C108.3,71.9,105.8,65.6,101.2,60z
			 M50.3,96.8c-1.4-2.2-1.7-3.3,1.7-3.3c3.2,0.1,5.5,0.5,7.8,3.3c9.4,11.3,26.4,12.4,38.5,3.1c0.9-0.7,2.1-3.6,3.3-1
			c0.9,2,5.6,3.6,1.2,7c-6,4.7-14.4,7.9-24.9,7.9C67.3,113.3,57.4,107.6,50.3,96.8z M132,131.3c-1,0.1-2,0-2.9,0
			c-33.3,0-66.5,0-99.8,0c-0.8,0-1.7,0.1-2.5,0c-0.8-0.1-2.2,0.6-2.3-0.9c0-1.6,1.3-1.5,2.4-1.5c6.8,0,13.7,0,20.5,0
			c1.1,0,2.2,0,3.4,0c1.7,0,3.1-0.6,3.1-2.5c0-2-1.5-2.5-3.2-2.5c-6,0-12,0-18,0c-1.3,0-2.7,0-4.8,0c3.3-3.6,6.7-5,10.6-5
			c27.1-0.1,54.2-0.1,81.4,0c3.9,0,7.3,1.3,10.7,5c-6.9,0-12.9,0-18.9,0c-9.5,0-19,0-28.5,0c-2.1,0-5.2-0.6-5.1,2.6
			c0,2.9,2.9,2.4,4.9,2.4c15.4,0,30.8,0,46.1,0c1,0,2,0,2.9,0c1.1,0,2,0.3,2,1.6C133.8,131.7,132.7,131.3,132,131.3z"/>
		<path d="M74.3,25.6c-4.7-0.4-7.3-3-7.8-7.7c-0.1-1.5-0.9-2.3-2.4-2.3c-1.5,0-2.4,0.7-2.5,2.2c-0.4,4.7-2.9,7.4-7.7,7.9
			c-1.5,0.1-2.3,0.8-2.4,2.3c-0.1,1.7,0.8,2.5,2.5,2.7c4.5,0.4,7.1,3,7.5,7.5c0.2,1.7,1,2.6,2.7,2.5c1.5-0.1,2.2-0.9,2.4-2.4
			c0.5-4.7,3.1-7.3,7.8-7.7c1.5-0.1,2.2-1,2.2-2.5C76.6,26.6,75.8,25.8,74.3,25.6z M64.3,29.7c-0.9,0.3-1.6-0.4-1.9-1.2
			c-0.3-1.1,0.4-1.8,1.5-2c1-0.2,1.3,0.8,1.7,1.2C65.8,28.9,65.1,29.5,64.3,29.7z"/>
		<path d="M63.2,128.8c-1.8,0-4,0.2-4.1-2.3c-0.1-3.1,2.5-2.7,4.5-2.7c1.9,0,3.9,0,3.8,2.6C67.5,129.3,65.1,128.8,63.2,128.8z"/>
		<path d="M36.9,42.2h-2.1v-2.1c0-1.9-1.6-3.5-3.5-3.5c-1.9,0-3.5,1.6-3.5,3.5v2.1h-2.1c-1.9,0-3.5,1.6-3.5,3.5s1.6,3.5,3.5,3.5h2.1
			v2.1c0,1.9,1.6,3.5,3.5,3.5c1.9,0,3.5-1.6,3.5-3.5v-2.1h2.1c1.9,0,3.5-1.6,3.5-3.5S38.8,42.2,36.9,42.2z"/>
		<path d="M54.2,67.4h-2.1v-2.1c0-1.9-1.6-3.5-3.5-3.5c-1.9,0-3.5,1.6-3.5,3.5v2.1H43c-1.9,0-3.5,1.6-3.5,3.5c0,1.9,1.6,3.5,3.5,3.5
			h2.1v2.1c0,1.9,1.6,3.5,3.5,3.5c1.9,0,3.5-1.6,3.5-3.5v-2.1h2.1c1.9,0,3.5-1.6,3.5-3.5C57.7,69,56.1,67.4,54.2,67.4z"/>
	</g>
</g>
</svg>
